<svg enable-background="new 0 0 2500 2455" viewBox="0 0 2500 2455" xmlns="http://www.w3.org/2000/svg"><g fill="none" stroke-linejoin="round" stroke-miterlimit="10"><g stroke-width="30"><path d="m431.4 1218.6-258.3 232.4s-26.5 19.5-.3 54.8l118.8 109.2s28.2 30.6 70.3-3.8l273.7-205.3z" stroke="#2eafca"/><path d="m881.8 1222.9 471.5-357.6-1.1-360.3s-19.6-78.7-86.8-38.2l-627.9 567.8z" stroke="#30b0cb"/><path d="m175.5 983.8s-38.5-28.1 8.1-65.1l108.6-96.1s31.1-32.4 63.7-3.9l993.6 760.6-1.9 362.2s-.8 56.9-73.7 50.2z" stroke="#4cbad1"/><path d="m1273.9 1992.3c27.2 28.2 60.5 19.2 60.5 19.2l368.5-179.1c47.2-31.8 40.8-71.6 40.8-71.6l5.7-1081.4c.3-47.5-48.3-64.2-48.3-64.2l-317.7-155.2c-69.4-43.4-115.2 7.1-115.2 7.1s58.9-41.9 87.1 38.2l-7.6 1429.9c-.1 9.8-2.2 19.5-6.4 28.2-8.5 16.9-26.8 32.6-70.4 25.7z" stroke="#63c3d7"/></g><path d="m2305.9 545.9-398.1 1365.2" stroke="#30b0cb" stroke-linecap="round" stroke-width="40"/></g></svg>